<svg width="260" height="78" viewBox="0 0 260 78" fill="none" xmlns="http://www.w3.org/2000/svg">
<path d="M35.9575 38.896C38.9015 39.536 41.1628 40.816 42.7415 42.736C44.3628 44.6133 45.1735 47.0453 45.1735 50.032C45.1735 53.872 43.7442 56.8373 40.8855 58.928C38.0695 60.976 33.8882 62 28.3415 62H7.7335V17.2H27.0615C32.0535 17.2 35.9148 18.2027 38.6455 20.208C41.4188 22.2133 42.8055 25.0507 42.8055 28.72C42.8055 31.1947 42.1868 33.3067 40.9495 35.056C39.7548 36.7627 38.0908 38.0427 35.9575 38.896ZM12.4695 21.104V37.36H26.7415C30.3682 37.36 33.1628 36.6773 35.1255 35.312C37.0882 33.904 38.0695 31.8773 38.0695 29.232C38.0695 26.5867 37.0882 24.5813 35.1255 23.216C33.1628 21.808 30.3682 21.104 26.7415 21.104H12.4695ZM28.2775 58.096C32.2882 58.096 35.3175 57.4133 37.3655 56.048C39.4135 54.6827 40.4375 52.5493 40.4375 49.648C40.4375 44.0587 36.3842 41.264 28.2775 41.264H12.4695V58.096H28.2775ZM55.9835 17.2H60.7195V62H55.9835V17.2ZM112.736 17.2V62H108.832L80.032 25.648V62H75.296V17.2H79.2L108.064 53.552V17.2H112.736ZM158.911 39.6H163.455V56.688C161.364 58.5227 158.889 59.9307 156.031 60.912C153.172 61.8933 150.164 62.384 147.007 62.384C142.527 62.384 138.495 61.4027 134.911 59.44C131.327 57.4773 128.511 54.768 126.463 51.312C124.415 47.8133 123.391 43.9093 123.391 39.6C123.391 35.2907 124.415 31.408 126.463 27.952C128.511 24.4533 131.327 21.7227 134.911 19.76C138.495 17.7973 142.548 16.816 147.071 16.816C150.484 16.816 153.62 17.3707 156.479 18.48C159.337 19.5467 161.748 21.1467 163.711 23.28L160.767 26.288C157.225 22.7893 152.724 21.04 147.263 21.04C143.636 21.04 140.351 21.8507 137.407 23.472C134.505 25.0507 132.223 27.2693 130.559 30.128C128.895 32.944 128.062 36.1013 128.062 39.6C128.062 43.0987 128.895 46.256 130.559 49.072C132.223 51.888 134.505 54.1067 137.407 55.728C140.308 57.3493 143.572 58.16 147.199 58.16C151.807 58.16 155.711 57.008 158.911 54.704V39.6Z" fill="white"/>
<path d="M183.327 36.92C185.703 36.92 187.587 37.616 188.979 39.008C190.395 40.376 191.103 42.38 191.103 45.02V56H188.547V45.272C188.547 43.304 188.055 41.804 187.071 40.772C186.087 39.74 184.683 39.224 182.859 39.224C180.819 39.224 179.199 39.836 177.999 41.06C176.823 42.26 176.235 43.928 176.235 46.064V56H173.679V37.064H176.127V40.556C176.823 39.404 177.783 38.516 179.007 37.892C180.255 37.244 181.695 36.92 183.327 36.92ZM215.107 37.064V56H212.659V52.544C211.987 53.696 211.063 54.596 209.887 55.244C208.711 55.868 207.367 56.18 205.855 56.18C203.383 56.18 201.427 55.496 199.987 54.128C198.571 52.736 197.863 50.708 197.863 48.044V37.064H200.419V47.792C200.419 49.784 200.911 51.296 201.895 52.328C202.879 53.36 204.283 53.876 206.107 53.876C208.099 53.876 209.671 53.276 210.823 52.076C211.975 50.852 212.551 49.16 212.551 47V37.064H215.107ZM230.005 56.18C228.181 56.18 226.537 55.772 225.073 54.956C223.609 54.116 222.457 52.964 221.617 51.5C220.777 50.036 220.357 48.38 220.357 46.532C220.357 44.684 220.777 43.028 221.617 41.564C222.457 40.1 223.609 38.96 225.073 38.144C226.537 37.328 228.181 36.92 230.005 36.92C231.829 36.92 233.473 37.328 234.937 38.144C236.401 38.96 237.541 40.1 238.357 41.564C239.197 43.028 239.617 44.684 239.617 46.532C239.617 48.38 239.197 50.036 238.357 51.5C237.541 52.964 236.401 54.116 234.937 54.956C233.473 55.772 231.829 56.18 230.005 56.18ZM230.005 53.912C231.349 53.912 232.549 53.612 233.605 53.012C234.685 52.388 235.525 51.512 236.125 50.384C236.725 49.256 237.025 47.972 237.025 46.532C237.025 45.092 236.725 43.808 236.125 42.68C235.525 41.552 234.685 40.688 233.605 40.088C232.549 39.464 231.349 39.152 230.005 39.152C228.661 39.152 227.449 39.464 226.369 40.088C225.313 40.688 224.473 41.552 223.849 42.68C223.249 43.808 222.949 45.092 222.949 46.532C222.949 47.972 223.249 49.256 223.849 50.384C224.473 51.512 225.313 52.388 226.369 53.012C227.449 53.612 228.661 53.912 230.005 53.912ZM249.911 56.18C248.375 56.18 246.899 55.964 245.483 55.532C244.091 55.076 242.999 54.512 242.207 53.84L243.359 51.824C244.151 52.448 245.147 52.964 246.347 53.372C247.547 53.756 248.795 53.948 250.091 53.948C251.819 53.948 253.091 53.684 253.907 53.156C254.747 52.604 255.167 51.836 255.167 50.852C255.167 50.156 254.939 49.616 254.483 49.232C254.027 48.824 253.451 48.524 252.755 48.332C252.059 48.116 251.135 47.912 249.983 47.72C248.447 47.432 247.211 47.144 246.275 46.856C245.339 46.544 244.535 46.028 243.863 45.308C243.215 44.588 242.891 43.592 242.891 42.32C242.891 40.736 243.551 39.44 244.871 38.432C246.191 37.424 248.027 36.92 250.379 36.92C251.603 36.92 252.827 37.088 254.051 37.424C255.275 37.736 256.283 38.156 257.075 38.684L255.959 40.736C254.399 39.656 252.539 39.116 250.379 39.116C248.747 39.116 247.511 39.404 246.671 39.98C245.855 40.556 245.447 41.312 245.447 42.248C245.447 42.968 245.675 43.544 246.131 43.976C246.611 44.408 247.199 44.732 247.895 44.948C248.591 45.14 249.551 45.344 250.775 45.56C252.287 45.848 253.499 46.136 254.411 46.424C255.323 46.712 256.103 47.204 256.751 47.9C257.399 48.596 257.723 49.556 257.723 50.78C257.723 52.436 257.027 53.756 255.635 54.74C254.267 55.7 252.359 56.18 249.911 56.18Z" fill="white"/>
</svg>
